<?xml version="1.0" encoding="utf-8"?>
<!-- Generator: Adobe Illustrator 24.1.1, SVG Export Plug-In . SVG Version: 6.00 Build 0)  -->
<svg version="1.1" xmlns="http://www.w3.org/2000/svg" xmlns:xlink="http://www.w3.org/1999/xlink" x="0px" y="0px"
	 viewBox="0 0 1045.56 236" style="enable-background:new 0 0 1045.56 236;" xml:space="preserve">
<style type="text/css">
	.st0{fill:#17375F;}
	.st1{display:none;}
	.st2{display:inline;}
	.st3{fill:url(#SVGID_1_);}
	.st4{fill:url(#SVGID_2_);}
	.st5{fill:url(#SVGID_3_);}
	.st6{fill:url(#SVGID_4_);}
	.st7{fill:url(#SVGID_5_);}
	.st8{fill:url(#SVGID_6_);}
	.st9{fill:#FFFFFF;}
	.st10{fill:url(#SVGID_7_);}
	.st11{fill:url(#SVGID_8_);}
	.st12{fill:url(#SVGID_9_);}
	.st13{fill:url(#SVGID_10_);}
	.st14{fill:url(#SVGID_11_);}
	.st15{fill:url(#SVGID_12_);}
	.st16{fill:url(#SVGID_13_);}
	.st17{fill:url(#SVGID_14_);}
	.st18{fill:url(#SVGID_15_);}
	.st19{fill:url(#SVGID_16_);}
	.st20{fill:url(#SVGID_17_);}
	.st21{fill:#1488CA;}
	.st22{fill:url(#SVGID_18_);}
	.st23{fill:url(#SVGID_19_);}
	.st24{fill:url(#SVGID_20_);}
	.st25{fill:url(#SVGID_21_);}
	.st26{fill:url(#SVGID_22_);}
	.st27{fill:url(#SVGID_23_);}
	.st28{fill:url(#SVGID_24_);}
	.st29{fill:url(#SVGID_25_);}
	.st30{fill:url(#SVGID_26_);}
	.st31{fill:url(#SVGID_27_);}
	.st32{fill:url(#SVGID_28_);}
	.st33{fill:url(#SVGID_29_);}
	.st34{fill:url(#SVGID_30_);}
	.st35{fill:url(#SVGID_31_);}
	.st36{fill:url(#SVGID_32_);}
	.st37{fill:url(#SVGID_33_);}
	.st38{fill:url(#SVGID_34_);}
	.st39{fill:url(#SVGID_35_);}
	.st40{fill:url(#SVGID_36_);}
	.st41{fill:url(#SVGID_37_);}
	.st42{fill:url(#SVGID_38_);}
	.st43{fill:url(#SVGID_39_);}
	.st44{fill:url(#SVGID_40_);}
	.st45{fill:url(#SVGID_41_);}
	.st46{fill:url(#SVGID_42_);}
	.st47{fill:url(#SVGID_43_);}
	.st48{fill:url(#SVGID_44_);}
	.st49{fill:url(#SVGID_45_);}
	.st50{fill:url(#SVGID_46_);}
	.st51{fill:url(#SVGID_47_);}
	.st52{fill:url(#SVGID_48_);}
	.st53{fill:url(#SVGID_49_);}
	.st54{fill:url(#SVGID_50_);}
	.st55{fill:url(#SVGID_51_);}
	.st56{fill:url(#SVGID_52_);}
	.st57{fill:url(#SVGID_53_);}
	.st58{fill:url(#SVGID_54_);}
	.st59{fill:url(#SVGID_55_);}
	.st60{fill:url(#SVGID_56_);}
	.st61{fill:url(#SVGID_57_);}
	.st62{fill:url(#SVGID_58_);}
	.st63{fill:url(#SVGID_59_);}
	.st64{fill:url(#SVGID_60_);}
	.st65{fill:url(#SVGID_61_);}
	.st66{fill:url(#SVGID_62_);}
	.st67{fill:url(#SVGID_63_);}
	.st68{fill:url(#SVGID_64_);}
	.st69{fill:url(#SVGID_65_);}
	.st70{fill:url(#SVGID_66_);}
	.st71{fill:url(#SVGID_67_);}
	.st72{fill:url(#SVGID_68_);}
	.st73{fill:url(#SVGID_69_);}
	.st74{fill:url(#SVGID_70_);}
	.st75{fill:url(#SVGID_71_);}
	.st76{fill:url(#SVGID_72_);}
</style>
<g id="Layer_1">
	<g>
		<g>
			<g>
				<linearGradient id="SVGID_1_" gradientUnits="userSpaceOnUse" x1="85.6629" y1="81.6708" x2="58.1575" y2="224.4736">
					<stop  offset="1.082549e-07" style="stop-color:#0E84C7"/>
					<stop  offset="0.4388" style="stop-color:#4E68AF"/>
				</linearGradient>
				<path class="st3" d="M128.07,225.93L118,236c-0.79-0.79-1.54-1.58-2.33-2.33L44.3,162.3L0,118.04L44.3,73.7l44.26,44.34
					l16.89,16.85l22.63,22.59C146.95,176.4,146.95,207.05,128.07,225.93z"/>
				<linearGradient id="SVGID_2_" gradientUnits="userSpaceOnUse" x1="167.0488" y1="210.1615" x2="49.1719" y2="133.7008">
					<stop  offset="1.082549e-07" style="stop-color:#0E84C7"/>
					<stop  offset="0.4388" style="stop-color:#4E68AF"/>
					<stop  offset="0.5494" style="stop-color:#445B9C"/>
					<stop  offset="0.7663" style="stop-color:#2E3E72"/>
					<stop  offset="0.8748" style="stop-color:#23325E"/>
				</linearGradient>
				<path class="st4" d="M115.67,233.67L44.3,162.3L0,118.04L44.3,73.7l44.26,44.34l16.89,16.85
					C80.36,160.76,68.3,185.13,115.67,233.67z"/>
				<linearGradient id="SVGID_3_" gradientUnits="userSpaceOnUse" x1="0" y1="96.6419" x2="142.2283" y2="96.6419">
					<stop  offset="1.082549e-07" style="stop-color:#0E84C7"/>
					<stop  offset="0.4388" style="stop-color:#445A9C"/>
				</linearGradient>
				<path class="st5" d="M128.07,78.53l-52.78,52.78c-16.6,16.6-17.14,43.17-1.54,60.35c0.46,0.54,1,1.08,1.54,1.62L0,118.04
					L44.3,73.7L118,0l10.07,10.07C146.95,28.95,146.95,59.6,128.07,78.53z"/>
				<linearGradient id="SVGID_4_" gradientUnits="userSpaceOnUse" x1="88.2449" y1="125.2165" x2="49.4838" y2="326.4563">
					<stop  offset="1.082549e-07" style="stop-color:#0E84C7"/>
					<stop  offset="0.4388" style="stop-color:#4E68AF"/>
				</linearGradient>
				<path class="st6" d="M128.07,78.53l-52.78,52.78c-16.6,16.6-17.14,43.17-1.54,60.35C-8.78,106.89,130.44,59.73,118,0
					l10.07,10.07C146.95,28.95,146.95,59.6,128.07,78.53z"/>
				<g>
					
						<linearGradient id="SVGID_5_" gradientUnits="userSpaceOnUse" x1="1953.8441" y1="-3171.3174" x2="1926.3386" y2="-3028.5146" gradientTransform="matrix(-1 0 0 -1 2206.3831 -3016.9883)">
						<stop  offset="1.082549e-07" style="stop-color:#0E84C7"/>
						<stop  offset="0.4388" style="stop-color:#4E68AF"/>
					</linearGradient>
					<path class="st7" d="M210.14,10.07L220.2,0c0.79,0.79,1.54,1.58,2.33,2.33L293.9,73.7l44.3,44.26l-44.3,44.34l-44.26-44.34
						l-16.89-16.85l-22.63-22.59C191.25,59.6,191.25,28.95,210.14,10.07z"/>
					
						<linearGradient id="SVGID_6_" gradientUnits="userSpaceOnUse" x1="2035.23" y1="-3042.8267" x2="1917.3531" y2="-3119.2874" gradientTransform="matrix(-1 0 0 -1 2206.3831 -3016.9883)">
						<stop  offset="1.082549e-07" style="stop-color:#0E84C7"/>
						<stop  offset="0.4388" style="stop-color:#4E68AF"/>
						<stop  offset="0.5494" style="stop-color:#445B9C"/>
						<stop  offset="0.7663" style="stop-color:#2E3E72"/>
						<stop  offset="0.8748" style="stop-color:#23325E"/>
					</linearGradient>
					<path class="st8" d="M222.53,2.33L293.9,73.7l44.3,44.26l-44.3,44.34l-44.26-44.34l-16.89-16.85
						C257.84,75.24,269.91,50.87,222.53,2.33z"/>
					
						<linearGradient id="SVGID_7_" gradientUnits="userSpaceOnUse" x1="1868.1813" y1="-3156.3464" x2="2010.4094" y2="-3156.3464" gradientTransform="matrix(-1 0 0 -1 2206.3831 -3016.9883)">
						<stop  offset="1.082549e-07" style="stop-color:#0E84C7"/>
						<stop  offset="0.4388" style="stop-color:#445A9C"/>
					</linearGradient>
					<path class="st10" d="M210.14,157.47l52.78-52.78c16.6-16.6,17.14-43.17,1.54-60.35c-0.46-0.54-1-1.08-1.54-1.62l75.28,75.24
						l-44.3,44.34L220.2,236l-10.07-10.07C191.25,207.05,191.25,176.4,210.14,157.47z"/>
					
						<linearGradient id="SVGID_8_" gradientUnits="userSpaceOnUse" x1="1956.426" y1="-3127.7717" x2="1917.665" y2="-2926.532" gradientTransform="matrix(-1 0 0 -1 2206.3831 -3016.9883)">
						<stop  offset="1.082549e-07" style="stop-color:#0E84C7"/>
						<stop  offset="0.4388" style="stop-color:#4E68AF"/>
					</linearGradient>
					<path class="st11" d="M210.14,157.47l52.78-52.78c16.6-16.6,17.14-43.17,1.54-60.35c82.52,84.77-56.69,131.93-44.25,191.66
						l-10.07-10.07C191.25,207.05,191.25,176.4,210.14,157.47z"/>
				</g>
				<linearGradient id="SVGID_9_" gradientUnits="userSpaceOnUse" x1="131.5261" y1="118.339" x2="200.8606" y2="118.339">
					<stop  offset="1.082549e-07" style="stop-color:#0E84C7"/>
					<stop  offset="0.4388" style="stop-color:#4E68AF"/>
				</linearGradient>
				<circle class="st12" cx="173.61" cy="118.34" r="39.21"/>
				<g>
					<linearGradient id="SVGID_10_" gradientUnits="userSpaceOnUse" x1="162.1321" y1="81.1571" x2="237.0908" y2="191.5978">
						<stop  offset="1.082549e-07" style="stop-color:#0E84C7"/>
						<stop  offset="0.4388" style="stop-color:#4E68AF"/>
						<stop  offset="0.6199" style="stop-color:#545EA7"/>
						<stop  offset="0.8676" style="stop-color:#5C4B9A"/>
					</linearGradient>
					<path class="st13" d="M212.82,118.34c0-21.65-17.55-39.21-39.21-39.21c-14.26,0-26.74,7.61-33.6,19
						c6.81-5.7,15.57-9.13,25.14-9.13c21.65,0,39.21,17.55,39.21,39.21c0,7.39-2.05,14.31-5.61,20.21
						C207.35,141.23,212.82,130.42,212.82,118.34z"/>
				</g>
				<linearGradient id="SVGID_11_" gradientUnits="userSpaceOnUse" x1="152.3208" y1="118.339" x2="194.1638" y2="118.339">
					<stop  offset="1.082549e-07" style="stop-color:#0E84C7"/>
					<stop  offset="0.4388" style="stop-color:#4E68AF"/>
					<stop  offset="0.5494" style="stop-color:#445B9C"/>
					<stop  offset="0.7663" style="stop-color:#2E3E72"/>
					<stop  offset="0.8748" style="stop-color:#23325E"/>
				</linearGradient>
				<circle class="st14" cx="173.24" cy="118.34" r="20.92"/>
			</g>
			<g>
				<g>
					<path class="st21" d="M441.22,141.92h-60.58V33.25h60.58v11.22h-47.94v35.01h45.04v11.15h-45.04v39.99h47.94V141.92z
						 M527.36,33.25h13.6L501.8,141.92h-12.49L450.36,33.25h13.38l24.98,70.32c2.87,8.08,5.15,15.93,6.84,23.56
						c1.78-8.03,4.11-16.03,6.99-24.01L527.36,33.25z M650.23,87.43c0,17.39-4.4,31.07-13.19,41.03
						c-8.8,9.96-21.02,14.94-36.68,14.94c-16,0-28.36-4.89-37.05-14.68c-8.7-9.79-13.04-23.6-13.04-41.44
						c0-17.69,4.36-31.4,13.08-41.14c8.72-9.74,21.11-14.6,37.16-14.6c15.61,0,27.8,4.96,36.57,14.87
						C645.85,56.32,650.23,69.99,650.23,87.43 M563.64,87.43c0,14.72,3.13,25.88,9.4,33.49c6.27,7.61,15.37,11.41,27.32,11.41
						c12.04,0,21.13-3.79,27.28-11.37c6.14-7.58,9.22-18.75,9.22-33.52c0-14.62-3.06-25.7-9.18-33.26
						c-6.12-7.56-15.18-11.33-27.17-11.33c-12.04,0-21.2,3.8-27.46,11.41C566.77,61.85,563.64,72.91,563.64,87.43"/>
					<polygon class="st0" points="728.1,140.25 698.74,140.25 698.74,55.58 672.2,55.58 672.2,31.57 754.56,31.57 754.56,55.58 
						728.1,55.58 					"/>
					<polygon class="st0" points="834.62,140.25 770.1,140.25 770.1,31.57 834.62,31.57 834.62,55.14 799.46,55.14 799.46,72.23 
						832.01,72.23 832.01,95.8 799.46,95.8 799.46,116.31 834.62,116.31 					"/>
					<path class="st0" d="M902.03,54.1c-6.99,0-12.44,2.86-16.35,8.59c-3.92,5.72-5.87,13.61-5.87,23.67
						c0,20.91,7.95,31.37,23.86,31.37c4.81,0,9.46-0.67,13.97-2.01c4.51-1.34,9.04-2.95,13.6-4.83v24.82
						c-9.07,4.01-19.33,6.02-30.77,6.02c-16.4,0-28.98-4.76-37.72-14.27c-8.75-9.51-13.12-23.27-13.12-41.25
						c0-11.25,2.12-21.13,6.36-29.66c4.24-8.52,10.33-15.08,18.29-19.66c7.95-4.58,17.3-6.87,28.06-6.87
						c11.74,0,22.97,2.55,33.67,7.65l-8.99,23.12c-4.01-1.88-8.03-3.47-12.04-4.76C910.95,54.74,906.64,54.1,902.03,54.1"/>
					<polygon class="st0" points="1045.56,140.25 1016.05,140.25 1016.05,95.94 981.94,95.94 981.94,140.25 952.43,140.25 
						952.43,31.57 981.94,31.57 981.94,71.86 1016.05,71.86 1016.05,31.57 1045.56,31.57 					"/>
				</g>
				<path class="st0" d="M415.87,189c0-7.97,0.06-15.58,0.23-19.65h-0.17c-1.63,5.47-9.88,25.52-15.06,38.37h-3.08
					c-3.9-9.94-12.44-32.27-14.3-38.43h-0.12c0.29,4.65,0.41,14.13,0.41,21.1v17.33h-3.14v-40.7h4.71
					c5.58,13.95,12.62,32.21,14.13,36.8h0.12c0.93-2.97,9.07-23.26,14.77-36.8h4.65v40.7h-3.14V189z M434.72,193.65l-5.17,14.07
					h-3.2l14.94-40.7h3.72l15.58,40.7h-3.43l-5.29-14.07H434.72z M450.82,190.74c-4.53-12.09-6.86-17.91-7.67-20.64h-0.06
					c-0.99,3.08-3.6,10.29-7.27,20.64H450.82z M468.5,167.02h3.14v21.16c3.26-3.14,14.88-14.07,22.15-21.16h4.19l-18.26,17.33
					l19.3,23.37h-3.9l-17.67-21.34l-5.81,5.12v16.22h-3.14V167.02z M528.62,187.72h-20.76v17.09h22.73l-0.47,2.91h-25.41v-40.7
					h24.94v2.91h-21.8v14.88h20.76V187.72z M563.63,169.93h-13.66v-2.91h30.58v2.91h-13.72v37.79h-3.2V169.93z M587.18,167.02h3.14
					v17.73h24.42v-17.73h3.14v40.7h-3.14v-20.06h-24.42v20.06h-3.14V167.02z M653.58,187.72h-20.76v17.09h22.73l-0.47,2.91h-25.41
					v-40.7h24.94v2.91h-21.8v14.88h20.76V187.72z M687.37,207.72l-11.28-40.7h3.26c2.73,9.77,8.9,32.27,9.83,37.04h0.06
					c0.76-3.78,7.44-26.28,10.29-37.04h3.49c2.67,9.94,9.19,33.84,9.83,36.98h0.06c1.28-5.76,8.08-27.27,10.87-36.98h3.2
					l-12.44,40.7h-3.6c-2.67-9.59-9.01-33.14-9.71-36.63h-0.06c-1.05,5.29-7.33,26.51-10.23,36.63H687.37z M737.73,167.02v40.7
					h-3.14v-40.7H737.73z M749.82,196.79c1.22,5.41,4.83,8.6,11.51,8.6c7.44,0,10.29-3.72,10.29-8.14c0-4.59-2.03-7.44-10.99-9.65
					c-8.6-2.15-12.33-4.94-12.33-10.81c0-5.35,3.9-10.35,12.62-10.35c8.95,0,12.73,5.47,13.26,10.41h-3.26
					c-0.93-4.36-3.78-7.5-10.17-7.5c-5.87,0-9.07,2.73-9.07,7.27c0,4.48,2.67,6.22,10.17,8.08c11.45,2.85,13.14,7.44,13.14,12.33
					c0,5.99-4.36,11.16-13.78,11.16c-10.17,0-13.9-5.93-14.65-11.4H749.82z M784.02,167.02h3.14v17.73h24.42v-17.73h3.14v40.7h-3.14
					v-20.06h-24.42v20.06h-3.14V167.02z M850.42,187.72h-20.76v17.09h22.73l-0.47,2.91h-25.41v-40.7h24.94v2.91h-21.8v14.88h20.76
					V187.72z M861.29,196.79c1.22,5.41,4.83,8.6,11.51,8.6c7.44,0,10.29-3.72,10.29-8.14c0-4.59-2.03-7.44-10.99-9.65
					c-8.6-2.15-12.33-4.94-12.33-10.81c0-5.35,3.9-10.35,12.62-10.35c8.95,0,12.73,5.47,13.26,10.41h-3.26
					c-0.93-4.36-3.78-7.5-10.17-7.5c-5.87,0-9.07,2.73-9.07,7.27c0,4.48,2.67,6.22,10.17,8.08c11.45,2.85,13.14,7.44,13.14,12.33
					c0,5.99-4.36,11.16-13.78,11.16c-10.17,0-13.9-5.93-14.65-11.4H861.29z M918.57,169.93H904.9v-2.91h30.58v2.91h-13.72v37.79
					h-3.2V169.93z M945.32,188.71v19.01h-3.2v-40.7h14.59c8.02,0,12.27,4.3,12.27,10.7c0,5.17-3.08,8.55-7.62,9.54
					c4.19,0.99,6.98,3.72,6.98,10.64v1.57c0,2.85-0.23,6.69,0.52,8.26h-3.2c-0.76-1.74-0.58-5-0.58-8.49v-1.05
					c0-6.69-1.98-9.48-9.77-9.48H945.32z M945.32,185.8h9.83c7.15,0,10.47-2.67,10.47-8.02c0-5-3.26-7.85-9.59-7.85h-10.7V185.8z
					 M981.49,167.02v24.65c0,10.81,6.1,13.6,11.86,13.6c6.8,0,11.86-2.85,11.86-13.6v-24.65h3.2v24.48
					c0,12.73-6.74,16.69-15.17,16.69c-8.02,0-15-4.36-15-16.16v-25H981.49z M1043.59,187.72h-20.76v17.09h22.73l-0.47,2.91h-25.41
					v-40.7h24.94v2.91h-21.8v14.88h20.76V187.72z"/>
			</g>
		</g>
	</g>
</g>
<g id="Layer_2">
</g>
</svg>
