<?xml version="1.0" encoding="utf-8"?>
<!-- Generator: Adobe Illustrator 24.1.1, SVG Export Plug-In . SVG Version: 6.00 Build 0)  -->
<svg version="1.1" xmlns="http://www.w3.org/2000/svg" xmlns:xlink="http://www.w3.org/1999/xlink" x="0px" y="0px"
	 viewBox="0 0 1045.92 236.48" style="enable-background:new 0 0 1045.92 236.48;" xml:space="preserve">
<style type="text/css">
	.st0{fill:#17375F;}
	.st1{display:none;}
	.st2{display:inline;}
	.st3{fill:url(#SVGID_1_);}
	.st4{fill:url(#SVGID_2_);}
	.st5{fill:url(#SVGID_3_);}
	.st6{fill:url(#SVGID_4_);}
	.st7{fill:url(#SVGID_5_);}
	.st8{fill:url(#SVGID_6_);}
	.st9{fill:#FFFFFF;}
	.st10{fill:url(#SVGID_7_);}
	.st11{fill:url(#SVGID_8_);}
	.st12{fill:url(#SVGID_9_);}
	.st13{fill:url(#SVGID_10_);}
	.st14{fill:url(#SVGID_11_);}
	.st15{fill:url(#SVGID_12_);}
	.st16{fill:url(#SVGID_13_);}
	.st17{fill:url(#SVGID_14_);}
	.st18{fill:url(#SVGID_15_);}
	.st19{fill:url(#SVGID_16_);}
	.st20{fill:url(#SVGID_17_);}
	.st21{fill:#1488CA;}
	.st22{fill:url(#SVGID_18_);}
	.st23{fill:url(#SVGID_19_);}
	.st24{fill:url(#SVGID_20_);}
	.st25{fill:url(#SVGID_21_);}
	.st26{fill:url(#SVGID_22_);}
	.st27{fill:url(#SVGID_23_);}
	.st28{fill:url(#SVGID_24_);}
	.st29{fill:url(#SVGID_25_);}
	.st30{fill:url(#SVGID_26_);}
	.st31{fill:url(#SVGID_27_);}
	.st32{fill:url(#SVGID_28_);}
	.st33{fill:url(#SVGID_29_);}
	.st34{fill:url(#SVGID_30_);}
	.st35{fill:url(#SVGID_31_);}
	.st36{fill:url(#SVGID_32_);}
	.st37{fill:url(#SVGID_33_);}
	.st38{fill:url(#SVGID_34_);}
	.st39{fill:url(#SVGID_35_);}
	.st40{fill:url(#SVGID_36_);}
	.st41{fill:url(#SVGID_37_);}
	.st42{fill:url(#SVGID_38_);}
	.st43{fill:url(#SVGID_39_);}
	.st44{fill:url(#SVGID_40_);}
	.st45{fill:url(#SVGID_41_);}
	.st46{fill:url(#SVGID_42_);}
	.st47{fill:url(#SVGID_43_);}
	.st48{fill:url(#SVGID_44_);}
	.st49{fill:url(#SVGID_45_);}
	.st50{fill:url(#SVGID_46_);}
	.st51{fill:url(#SVGID_47_);}
	.st52{fill:url(#SVGID_48_);}
	.st53{fill:url(#SVGID_49_);}
	.st54{fill:url(#SVGID_50_);}
	.st55{fill:url(#SVGID_51_);}
	.st56{fill:url(#SVGID_52_);}
	.st57{fill:url(#SVGID_53_);}
	.st58{fill:url(#SVGID_54_);}
	.st59{fill:url(#SVGID_55_);}
	.st60{fill:url(#SVGID_56_);}
	.st61{fill:url(#SVGID_57_);}
	.st62{fill:url(#SVGID_58_);}
	.st63{fill:url(#SVGID_59_);}
	.st64{fill:url(#SVGID_60_);}
	.st65{fill:url(#SVGID_61_);}
	.st66{fill:url(#SVGID_62_);}
	.st67{fill:url(#SVGID_63_);}
	.st68{fill:url(#SVGID_64_);}
	.st69{fill:url(#SVGID_65_);}
	.st70{fill:url(#SVGID_66_);}
	.st71{fill:url(#SVGID_67_);}
	.st72{fill:url(#SVGID_68_);}
	.st73{fill:url(#SVGID_69_);}
	.st74{fill:url(#SVGID_70_);}
	.st75{fill:url(#SVGID_71_);}
	.st76{fill:url(#SVGID_72_);}
</style>
<g id="Layer_1">
	<g>
		<g>
			<g>
				<linearGradient id="SVGID_1_" gradientUnits="userSpaceOnUse" x1="85.8371" y1="81.8368" x2="58.2757" y2="224.93">
					<stop  offset="1.082549e-07" style="stop-color:#F5F5F5"/>
					<stop  offset="0.4388" style="stop-color:#F6F6F6"/>
				</linearGradient>
				<path class="st3" d="M128.33,226.39l-10.09,10.09c-0.79-0.79-1.54-1.58-2.33-2.33l-71.52-71.52L0,118.28l44.39-44.43
					l44.35,44.43l16.92,16.88l22.67,22.63C147.25,176.76,147.25,207.47,128.33,226.39z"/>
				<linearGradient id="SVGID_2_" gradientUnits="userSpaceOnUse" x1="167.3884" y1="210.5888" x2="49.2719" y2="133.9727">
					<stop  offset="1.082549e-07" style="stop-color:#F5F5F5"/>
					<stop  offset="0.4388" style="stop-color:#F6F6F6"/>
					<stop  offset="0.5605" style="stop-color:#E6E5E6"/>
					<stop  offset="0.7995" style="stop-color:#BEBDBE"/>
					<stop  offset="0.8748" style="stop-color:#B0B0B0"/>
				</linearGradient>
				<path class="st4" d="M115.91,234.15l-71.52-71.52L0,118.28l44.39-44.43l44.35,44.43l16.92,16.88
					C80.52,161.08,68.44,185.51,115.91,234.15z"/>
				<linearGradient id="SVGID_3_" gradientUnits="userSpaceOnUse" x1="0" y1="96.8384" x2="142.5174" y2="96.8384">
					<stop  offset="1.082549e-07" style="stop-color:#F5F5F5"/>
					<stop  offset="0.4388" style="stop-color:#E5E5E4"/>
				</linearGradient>
				<path class="st5" d="M128.33,78.69l-52.89,52.89c-16.63,16.63-17.17,43.26-1.54,60.47c0.46,0.54,1,1.08,1.54,1.63L0,118.28
					l44.39-44.43L118.24,0l10.09,10.09C147.25,29.01,147.25,59.72,128.33,78.69z"/>
				<linearGradient id="SVGID_4_" gradientUnits="userSpaceOnUse" x1="88.4243" y1="125.4711" x2="49.5844" y2="327.12">
					<stop  offset="1.082549e-07" style="stop-color:#F5F5F5"/>
					<stop  offset="0.4388" style="stop-color:#F6F6F6"/>
				</linearGradient>
				<path class="st6" d="M128.33,78.69l-52.89,52.89c-16.63,16.63-17.17,43.26-1.54,60.47C-8.79,107.11,130.7,59.85,118.24,0
					l10.09,10.09C147.25,29.01,147.25,59.72,128.33,78.69z"/>
				<g>
					
						<linearGradient id="SVGID_5_" gradientUnits="userSpaceOnUse" x1="-741.955" y1="-3171.4731" x2="-769.5164" y2="-3028.3799" gradientTransform="matrix(-1 0 0 -1 -488.9027 -3016.8301)">
						<stop  offset="1.082549e-07" style="stop-color:#F5F5F5"/>
						<stop  offset="0.4388" style="stop-color:#F6F6F6"/>
					</linearGradient>
					<path class="st7" d="M210.56,10.09L220.65,0c0.79,0.79,1.54,1.58,2.33,2.33l71.52,71.52l44.39,44.35l-44.39,44.43l-44.35-44.43
						l-16.92-16.88l-22.67-22.63C191.64,59.72,191.64,29.01,210.56,10.09z"/>
					
						<linearGradient id="SVGID_6_" gradientUnits="userSpaceOnUse" x1="-660.4037" y1="-3042.7212" x2="-778.5202" y2="-3119.3372" gradientTransform="matrix(-1 0 0 -1 -488.9027 -3016.8301)">
						<stop  offset="1.082549e-07" style="stop-color:#F5F5F5"/>
						<stop  offset="0.4388" style="stop-color:#F6F6F6"/>
						<stop  offset="0.5605" style="stop-color:#E6E5E6"/>
						<stop  offset="0.7995" style="stop-color:#BEBDBE"/>
						<stop  offset="0.8748" style="stop-color:#B0B0B0"/>
					</linearGradient>
					<path class="st8" d="M222.98,2.33l71.52,71.52l44.39,44.35l-44.39,44.43l-44.35-44.43l-16.92-16.88
						C258.37,75.4,270.45,50.97,222.98,2.33z"/>
					
						<linearGradient id="SVGID_7_" gradientUnits="userSpaceOnUse" x1="-827.7921" y1="-3156.4714" x2="-685.2747" y2="-3156.4714" gradientTransform="matrix(-1 0 0 -1 -488.9027 -3016.8301)">
						<stop  offset="1.082549e-07" style="stop-color:#F5F5F5"/>
						<stop  offset="0.4388" style="stop-color:#E5E5E4"/>
					</linearGradient>
					<path class="st10" d="M210.56,157.79l52.89-52.89c16.63-16.63,17.17-43.26,1.54-60.47c-0.46-0.54-1-1.08-1.54-1.63l75.44,75.4
						l-44.39,44.43l-73.85,73.85l-10.09-10.09C191.64,207.47,191.64,176.76,210.56,157.79z"/>
					
						<linearGradient id="SVGID_8_" gradientUnits="userSpaceOnUse" x1="-739.3679" y1="-3127.8389" x2="-778.2077" y2="-2926.1899" gradientTransform="matrix(-1 0 0 -1 -488.9027 -3016.8301)">
						<stop  offset="1.082549e-07" style="stop-color:#F5F5F5"/>
						<stop  offset="0.4388" style="stop-color:#F6F6F6"/>
					</linearGradient>
					<path class="st11" d="M210.56,157.79l52.89-52.89c16.63-16.63,17.17-43.26,1.54-60.47c82.69,84.94-56.81,132.2-44.34,192.05
						l-10.09-10.09C191.64,207.47,191.64,176.76,210.56,157.79z"/>
				</g>
				<linearGradient id="SVGID_9_" gradientUnits="userSpaceOnUse" x1="131.7935" y1="118.5796" x2="201.269" y2="118.5796">
					<stop  offset="1.082549e-07" style="stop-color:#F5F5F5"/>
					<stop  offset="0.4388" style="stop-color:#F6F6F6"/>
				</linearGradient>
				<circle class="st12" cx="173.97" cy="118.58" r="39.29"/>
				<g>
					<linearGradient id="SVGID_10_" gradientUnits="userSpaceOnUse" x1="162.4617" y1="81.3221" x2="237.5728" y2="191.9874">
						<stop  offset="1.082549e-07" style="stop-color:#F5F5F5"/>
						<stop  offset="0.4388" style="stop-color:#F6F6F6"/>
						<stop  offset="0.7769" style="stop-color:#E8E8E8"/>
						<stop  offset="0.8676" style="stop-color:#E4E4E3"/>
					</linearGradient>
					<path class="st13" d="M213.26,118.58c0-21.7-17.59-39.29-39.29-39.29c-14.29,0-26.79,7.63-33.67,19.04
						c6.82-5.71,15.6-9.15,25.19-9.15c21.7,0,39.29,17.59,39.29,39.29c0,7.41-2.05,14.34-5.62,20.25
						C207.77,141.51,213.26,130.69,213.26,118.58z"/>
				</g>
				<linearGradient id="SVGID_11_" gradientUnits="userSpaceOnUse" x1="152.6304" y1="118.5796" x2="194.5586" y2="118.5796">
					<stop  offset="1.082549e-07" style="stop-color:#F5F5F5"/>
					<stop  offset="0.4388" style="stop-color:#F6F6F6"/>
					<stop  offset="0.5605" style="stop-color:#E6E5E6"/>
					<stop  offset="0.7995" style="stop-color:#BEBDBE"/>
					<stop  offset="0.8748" style="stop-color:#B0B0B0"/>
				</linearGradient>
				<circle class="st14" cx="173.59" cy="118.58" r="20.96"/>
			</g>
			<g>
				<g>
					<path class="st9" d="M441.57,142h-60.58V33.33h60.58v11.22h-47.94v35.01h45.04v11.15h-45.04v39.99h47.94V142z M527.72,33.33
						h13.6L502.15,142h-12.49L450.72,33.33h13.38l24.98,70.32c2.87,8.08,5.15,15.93,6.84,23.56c1.78-8.03,4.11-16.03,6.99-24.01
						L527.72,33.33z M650.59,87.51c0,17.39-4.4,31.07-13.19,41.03s-21.02,14.94-36.68,14.94c-16,0-28.36-4.89-37.05-14.68
						c-8.7-9.79-13.04-23.6-13.04-41.44c0-17.69,4.36-31.4,13.08-41.14c8.72-9.74,21.11-14.6,37.16-14.6
						c15.61,0,27.8,4.96,36.57,14.87C646.2,56.39,650.59,70.07,650.59,87.51 M563.99,87.51c0,14.72,3.13,25.88,9.4,33.49
						c6.27,7.61,15.37,11.41,27.32,11.41c12.04,0,21.13-3.79,27.28-11.37c6.14-7.58,9.22-18.75,9.22-33.52
						c0-14.62-3.06-25.7-9.18-33.26c-6.12-7.56-15.18-11.33-27.17-11.33c-12.04,0-21.2,3.8-27.46,11.41S563.99,72.99,563.99,87.51"
						/>
					<polygon class="st9" points="728.46,140.32 699.1,140.32 699.1,55.66 672.56,55.66 672.56,31.65 754.92,31.65 754.92,55.66 
						728.46,55.66 					"/>
					<polygon class="st9" points="834.97,140.32 770.45,140.32 770.45,31.65 834.97,31.65 834.97,55.22 799.81,55.22 799.81,72.31 
						832.37,72.31 832.37,95.88 799.81,95.88 799.81,116.39 834.97,116.39 					"/>
					<path class="st9" d="M902.39,54.18c-6.99,0-12.44,2.86-16.35,8.59c-3.92,5.72-5.87,13.61-5.87,23.67
						c0,20.91,7.95,31.37,23.86,31.37c4.81,0,9.46-0.67,13.97-2.01c4.51-1.34,9.04-2.95,13.6-4.83v24.82
						c-9.07,4.01-19.33,6.02-30.77,6.02c-16.4,0-28.98-4.76-37.72-14.27c-8.75-9.51-13.12-23.27-13.12-41.25
						c0-11.25,2.12-21.13,6.36-29.66c4.24-8.52,10.33-15.08,18.29-19.66c7.95-4.58,17.31-6.87,28.06-6.87
						c11.74,0,22.97,2.55,33.67,7.65l-8.99,23.12c-4.01-1.88-8.03-3.47-12.04-4.76C911.31,54.82,907,54.18,902.39,54.18"/>
					<polygon class="st9" points="1045.92,140.32 1016.41,140.32 1016.41,96.02 982.29,96.02 982.29,140.32 952.78,140.32 
						952.78,31.65 982.29,31.65 982.29,71.94 1016.41,71.94 1016.41,31.65 1045.92,31.65 					"/>
				</g>
				<path class="st9" d="M416.23,189.08c0-7.97,0.06-15.58,0.23-19.65h-0.17c-1.63,5.47-9.88,25.52-15.06,38.37h-3.08
					c-3.9-9.94-12.44-32.27-14.3-38.43h-0.12c0.29,4.65,0.41,14.13,0.41,21.1v17.33h-3.14v-40.7h4.71
					c5.58,13.95,12.62,32.21,14.13,36.8h0.12c0.93-2.97,9.07-23.26,14.77-36.8h4.65v40.7h-3.14V189.08z M435.07,193.73l-5.17,14.07
					h-3.2l14.94-40.7h3.72l15.58,40.7h-3.43l-5.29-14.07H435.07z M451.18,190.82c-4.53-12.09-6.86-17.91-7.67-20.64h-0.06
					c-0.99,3.08-3.6,10.29-7.27,20.64H451.18z M468.86,167.1H472v21.16c3.26-3.14,14.88-14.07,22.15-21.16h4.19l-18.26,17.33
					l19.3,23.37h-3.9l-17.67-21.34l-5.81,5.12v16.22h-3.14V167.1z M528.98,187.8h-20.76v17.09h22.73l-0.47,2.91h-25.41v-40.7h24.94
					v2.91h-21.8v14.88h20.76V187.8z M563.98,170.01h-13.66v-2.91h30.58v2.91h-13.72v37.79h-3.2V170.01z M587.54,167.1h3.14v17.73
					h24.42V167.1h3.14v40.7h-3.14v-20.06h-24.42v20.06h-3.14V167.1z M653.94,187.8h-20.76v17.09h22.73l-0.47,2.91h-25.41v-40.7
					h24.94v2.91h-21.8v14.88h20.76V187.8z M687.73,207.8l-11.28-40.7h3.26c2.73,9.77,8.9,32.27,9.83,37.04h0.06
					c0.76-3.78,7.44-26.28,10.29-37.04h3.49c2.67,9.94,9.19,33.84,9.83,36.98h0.06c1.28-5.76,8.08-27.27,10.87-36.98h3.2
					l-12.44,40.7h-3.6c-2.67-9.59-9.01-33.14-9.71-36.63h-0.06c-1.05,5.29-7.33,26.51-10.23,36.63H687.73z M738.08,167.1v40.7h-3.14
					v-40.7H738.08z M750.18,196.87c1.22,5.41,4.83,8.6,11.51,8.6c7.44,0,10.29-3.72,10.29-8.14c0-4.59-2.03-7.44-10.99-9.65
					c-8.6-2.15-12.33-4.94-12.33-10.81c0-5.35,3.9-10.35,12.62-10.35c8.95,0,12.73,5.47,13.26,10.41h-3.26
					c-0.93-4.36-3.78-7.5-10.17-7.5c-5.87,0-9.07,2.73-9.07,7.27c0,4.48,2.67,6.22,10.17,8.08c11.45,2.85,13.14,7.44,13.14,12.33
					c0,5.99-4.36,11.16-13.78,11.16c-10.17,0-13.9-5.93-14.65-11.4H750.18z M784.37,167.1h3.14v17.73h24.42V167.1h3.14v40.7h-3.14
					v-20.06h-24.42v20.06h-3.14V167.1z M850.78,187.8h-20.76v17.09h22.73l-0.47,2.91h-25.41v-40.7h24.94v2.91h-21.8v14.88h20.76
					V187.8z M861.65,196.87c1.22,5.41,4.83,8.6,11.51,8.6c7.44,0,10.29-3.72,10.29-8.14c0-4.59-2.03-7.44-10.99-9.65
					c-8.6-2.15-12.33-4.94-12.33-10.81c0-5.35,3.9-10.35,12.62-10.35c8.95,0,12.73,5.47,13.26,10.41h-3.26
					c-0.93-4.36-3.78-7.5-10.17-7.5c-5.87,0-9.07,2.73-9.07,7.27c0,4.48,2.67,6.22,10.17,8.08c11.45,2.85,13.14,7.44,13.14,12.33
					c0,5.99-4.36,11.16-13.78,11.16c-10.17,0-13.9-5.93-14.65-11.4H861.65z M918.92,170.01h-13.66v-2.91h30.58v2.91h-13.72v37.79
					h-3.2V170.01z M945.67,188.79v19.01h-3.2v-40.7h14.59c8.02,0,12.27,4.3,12.27,10.7c0,5.17-3.08,8.55-7.62,9.54
					c4.19,0.99,6.98,3.72,6.98,10.64v1.57c0,2.85-0.23,6.69,0.52,8.26h-3.2c-0.76-1.74-0.58-5-0.58-8.49v-1.05
					c0-6.69-1.98-9.48-9.77-9.48H945.67z M945.67,185.88h9.83c7.15,0,10.47-2.67,10.47-8.02c0-5-3.26-7.85-9.59-7.85h-10.7V185.88z
					 M981.84,167.1v24.65c0,10.81,6.1,13.6,11.86,13.6c6.8,0,11.86-2.85,11.86-13.6V167.1h3.2v24.48c0,12.73-6.74,16.69-15.17,16.69
					c-8.02,0-15-4.36-15-16.16v-25H981.84z M1043.94,187.8h-20.76v17.09h22.73l-0.47,2.91h-25.41v-40.7h24.94v2.91h-21.8v14.88
					h20.76V187.8z"/>
			</g>
		</g>
	</g>
</g>
<g id="Layer_2">
</g>
</svg>
