<?xml version="1.0" encoding="utf-8"?>
<!-- Generator: Adobe Illustrator 24.1.1, SVG Export Plug-In . SVG Version: 6.00 Build 0)  -->
<svg version="1.1" id="Layer_2" xmlns="http://www.w3.org/2000/svg" xmlns:xlink="http://www.w3.org/1999/xlink" x="0px" y="0px"
	 viewBox="0 0 697.45 515.77" style="enable-background:new 0 0 697.45 515.77;" xml:space="preserve">
<style type="text/css">
	.st0{fill:#714C68;}
	.st1{fill:#8E8F8F;}
</style>
<g>
	<g>
		<path class="st0" d="M459.84,257.92c-5.69-0.96-11.38-1.92-17.09-2.85c-5.62-0.94-11.23-1.88-16.85-2.8
			c-3.61-0.6-7.21-1.18-10.84-1.75c-0.79-0.13-1.15-0.53-1.33-1.3c-0.41-1.73-0.92-3.46-1.45-5.16
			c-2.99-9.78-7.23-19.01-12.38-27.83c-0.39-0.69-0.86-1.22-0.21-2.16c7.23-10.12,14.39-20.3,21.58-30.46
			c3-4.26,5.99-8.53,8.92-12.71l-31.68-31.68c-0.13,0.09-0.38,0.23-0.6,0.39c-14.07,10.16-28.11,20.32-42.14,30.52
			c-0.04,0.04-0.09,0.06-0.13,0.09c-0.54,0.36-0.96,0.41-1.58,0c-1.37-0.86-2.8-1.65-4.24-2.42c-9.43-5.07-19.29-9.05-29.69-11.66
			c-0.66-0.17-1.09-0.43-1.22-1.22c-0.02-0.08-0.02-0.15-0.04-0.23c-0.6-3.7-1.3-7.4-1.93-11.1c-1.2-6.89-2.4-13.78-3.61-20.7
			c-1.11-6.29-2.22-12.58-3.27-18.89c-0.17-0.98-0.54-1.24-1.5-1.24c-14.09,0.04-28.17,0.04-42.26,0c-1.01,0-1.31,0.36-1.46,1.28
			c-0.81,5.48-1.69,10.95-2.54,16.43c-0.96,5.99-1.92,11.98-2.85,17.99c-0.85,5.39-1.71,10.78-2.54,16.19
			c-0.02,0.17-0.06,0.34-0.11,0.47c-0.19,0.56-0.56,0.85-1.26,1.03c-11.78,2.95-23.01,7.29-33.48,13.41v40.85
			c17.24-15.87,40.3-25.62,65.88-25.73c26.1,0.11,49.67,10.33,67.06,26.89c16.98,16.17,28.06,38.39,29.86,63.12
			c0.17,2.42,0.26,4.86,0.26,7.32c-0.02,22.31-7.53,42.82-20.13,59.19c-5.07,6.59-10.97,12.53-17.54,17.62
			c-16.45,12.79-37.13,20.38-59.53,20.38c-6.16,0-12.19-0.58-18.05-1.69c-1.35-0.24-2.72-0.54-4.06-0.85
			c-1.84-0.43-3.64-0.9-5.43-1.45c-4.88-1.43-9.6-3.25-14.14-5.39c-6.37-3.02-12.36-6.72-17.9-11.01
			c-8.24-6.39-15.46-14.08-21.3-22.8c-10.57-15.74-16.66-34.82-16.38-55.57c0.28-19.23,6.14-37.17,16.13-52.19v-68.1
			c-6.05-4.28-12.09-8.58-18.12-12.88c-3.81-2.72-7.64-5.45-11.36-8.09c-5.45,5.45-10.87,10.87-16.3,16.3v37.37
			c4.83,6.87,9.65,13.75,14.5,20.62c0.6,0.85,0.43,1.37,0.06,2.14c-2.78,5.48-5.82,10.85-8.19,16.51
			c-2.42,5.77-4.24,11.81-6.37,17.93v11.94c0,22.76,1.07,39.83,3.23,51.21c2.16,11.38,5.73,21.82,10.74,31.31
			c10.35,20.86,25.24,37.43,44.68,49.64c0.6-0.36,1.13-0.36,1.86,0.11c1.35,0.88,2.8,1.65,4.24,2.4c9.35,4.92,19.17,8.56,29.41,11.1
			c0.77,0.21,1.16,0.56,1.28,1.33c0.04,0.28,0.09,0.58,0.13,0.86c0.62,3.85,1.26,7.68,1.88,11.53c0.85,5.11,1.69,10.2,2.54,15.29
			c0.96,5.69,1.9,11.4,2.85,17.09c0.41,2.39,0.81,4.79,1.24,7.17h44.62c0.11-0.36,0.23-0.69,0.3-1.05
			c1.33-7.29,2.65-14.57,3.98-21.88c1.69-9.15,3.4-18.25,5.05-27.42c0.09-0.54,0.21-1.11,0.3-1.65c0.15-0.79,0.54-1.09,1.22-1.28
			c2.2-0.6,4.39-1.18,6.57-1.88c9.5-3,18.48-7.17,27.08-12.24c0.32-0.19,1-0.17,1.33,0.04c0.66,0.43,1.3,0.86,1.93,1.31
			c0.96,0.68,1.92,1.35,2.89,2.03c9.6,6.78,19.19,13.56,28.79,20.34c3.29,2.33,6.59,4.64,9.71,6.82
			c10.61-10.61,21.15-21.15,31.72-31.72c0,0-0.08-0.13-0.17-0.26c-5.39-7.44-10.78-14.87-16.15-22.31
			c-3.68-5.09-7.34-10.16-11.01-15.23c-1.15-1.58-2.29-3.14-3.44-4.71c-0.02-0.04-0.04-0.06-0.06-0.09
			c-0.47-0.66-0.56-1.15-0.08-1.93c1.18-1.9,2.25-3.87,3.31-5.86c0.08-0.15,0.17-0.32,0.26-0.49c1.67-3.23,3.23-6.5,4.66-9.82
			c0.02-0.04,0.04-0.08,0.04-0.11c2.35-5.52,4.3-11.17,5.77-17.03c0.17-0.68,0.49-1.07,1.28-1.2c5.97-1.05,11.94-2.14,17.92-3.25
			c9.69-1.78,19.38-3.57,29.07-5.35c1.69-0.32,3.38-0.68,5.01-1v-44.68C464.63,258.73,462.23,258.31,459.84,257.92z"/>
		<path class="st0" d="M286.99,355.24c19.77,0,36.57-6.89,50.4-20.66c13.84-13.77,20.75-30.46,20.75-50.04
			c0-19.64-6.92-36.36-20.75-50.13c-13.84-13.77-30.64-20.66-50.4-20.66c-19.71,0-36.49,6.89-50.36,20.66
			c-13.87,13.78-20.8,30.49-20.8,50.13c0,19.58,6.93,36.27,20.8,50.04C250.5,348.35,267.29,355.24,286.99,355.24z M254.43,250.93
			c8.89-9.16,19.75-13.75,32.57-13.75c12.82,0,23.67,4.58,32.57,13.75c8.89,9.16,13.34,20.36,13.34,33.6
			c0,13.18-4.45,24.35-13.34,33.51s-19.75,13.75-32.57,13.75c-12.82,0-23.67-4.58-32.57-13.75c-8.89-9.16-13.34-20.33-13.34-33.51
			C241.08,271.29,245.53,260.09,254.43,250.93z"/>
	</g>
	<g>
		<path class="st0" d="M10.67,515.25v-24.59H1.89v-5.01h23.52v5.01h-8.76v24.59H10.67z"/>
		<path class="st0" d="M36.64,500.35l-5.15-0.93c0.58-2.07,1.57-3.61,2.99-4.6s3.51-1.49,6.3-1.49c2.53,0,4.41,0.3,5.65,0.9
			s2.11,1.36,2.61,2.28s0.76,2.61,0.76,5.08l-0.06,6.62c0,1.88,0.09,3.27,0.27,4.17c0.18,0.9,0.52,1.85,1.02,2.88h-5.61
			c-0.15-0.38-0.33-0.94-0.55-1.68c-0.09-0.34-0.16-0.56-0.2-0.67c-0.97,0.94-2.01,1.65-3.11,2.12c-1.1,0.47-2.28,0.71-3.53,0.71
			c-2.21,0-3.95-0.6-5.22-1.8c-1.27-1.2-1.91-2.71-1.91-4.54c0-1.21,0.29-2.29,0.87-3.24c0.58-0.95,1.39-1.68,2.43-2.18
			c1.04-0.5,2.55-0.95,4.51-1.32c2.65-0.5,4.49-0.96,5.51-1.39v-0.57c0-1.09-0.27-1.87-0.81-2.33c-0.54-0.46-1.55-0.7-3.05-0.7
			c-1.01,0-1.8,0.2-2.36,0.6C37.45,498.65,36.99,499.35,36.64,500.35z M44.23,504.95c-0.73,0.24-1.88,0.53-3.45,0.87
			c-1.57,0.34-2.6,0.67-3.09,0.99c-0.74,0.53-1.11,1.19-1.11,2c0,0.79,0.3,1.48,0.89,2.06c0.59,0.58,1.35,0.87,2.26,0.87
			c1.02,0,2-0.34,2.93-1.01c0.69-0.51,1.14-1.14,1.35-1.88c0.15-0.48,0.22-1.41,0.22-2.77V504.95z"/>
		<path class="st0" d="M61.64,515.25v-29.6h5.67v29.6H61.64z"/>
		<path class="st0" d="M91.79,508.42l5.65,0.95c-0.73,2.07-1.87,3.65-3.44,4.73c-1.57,1.08-3.53,1.63-5.89,1.63
			c-3.73,0-6.49-1.22-8.28-3.65c-1.41-1.95-2.12-4.41-2.12-7.39c0-3.55,0.93-6.34,2.79-8.35c1.86-2.01,4.21-3.02,7.05-3.02
			c3.19,0,5.71,1.05,7.55,3.16c1.84,2.11,2.73,5.33,2.64,9.68H83.53c0.04,1.68,0.5,2.99,1.37,3.93c0.87,0.94,1.96,1.4,3.27,1.4
			c0.89,0,1.64-0.24,2.24-0.73C91.02,510.28,91.48,509.5,91.79,508.42z M92.11,502.69c-0.04-1.64-0.46-2.89-1.27-3.75
			s-1.79-1.28-2.95-1.28c-1.24,0-2.26,0.45-3.07,1.35c-0.81,0.9-1.2,2.13-1.19,3.67H92.11z"/>
		<path class="st0" d="M128.11,515.25h-5.67v-10.94c0-2.32-0.12-3.81-0.36-4.49c-0.24-0.68-0.64-1.21-1.18-1.58
			c-0.55-0.38-1.2-0.57-1.97-0.57c-0.98,0-1.86,0.27-2.64,0.81c-0.78,0.54-1.32,1.25-1.61,2.14c-0.29,0.89-0.43,2.53-0.43,4.93v9.71
			h-5.67v-21.44h5.27v3.15c1.87-2.42,4.23-3.63,7.07-3.63c1.25,0,2.4,0.23,3.43,0.68c1.04,0.45,1.82,1.03,2.35,1.73
			c0.53,0.7,0.9,1.49,1.11,2.38c0.21,0.89,0.31,2.16,0.31,3.82V515.25z"/>
		<path class="st0" d="M149.94,493.81v4.52h-3.88v8.64c0,1.75,0.04,2.77,0.11,3.06c0.07,0.29,0.24,0.53,0.5,0.72
			c0.26,0.19,0.58,0.28,0.96,0.28c0.52,0,1.29-0.18,2.28-0.54l0.48,4.4c-1.32,0.57-2.81,0.85-4.48,0.85c-1.02,0-1.95-0.17-2.77-0.51
			c-0.82-0.34-1.42-0.79-1.81-1.33c-0.38-0.54-0.65-1.28-0.8-2.21c-0.12-0.66-0.18-1.99-0.18-4v-9.35h-2.6v-4.52h2.6v-4.26
			l5.69-3.31v7.57H149.94z"/>
		<path class="st0" d="M158.13,509.13l5.69-0.87c0.24,1.1,0.73,1.94,1.47,2.51s1.78,0.86,3.11,0.86c1.47,0,2.57-0.27,3.31-0.81
			c0.5-0.38,0.75-0.88,0.75-1.51c0-0.43-0.13-0.79-0.4-1.07c-0.28-0.27-0.92-0.52-1.9-0.75c-4.58-1.01-7.48-1.93-8.7-2.77
			c-1.7-1.16-2.54-2.77-2.54-4.83c0-1.86,0.73-3.42,2.2-4.68c1.47-1.26,3.74-1.9,6.82-1.9c2.93,0,5.11,0.48,6.54,1.43
			c1.43,0.96,2.41,2.37,2.95,4.24l-5.35,0.99c-0.23-0.83-0.66-1.47-1.3-1.92s-1.55-0.67-2.74-0.67c-1.49,0-2.56,0.21-3.21,0.63
			c-0.43,0.3-0.65,0.68-0.65,1.15c0,0.4,0.19,0.75,0.57,1.03c0.51,0.38,2.28,0.91,5.3,1.59c3.02,0.69,5.13,1.53,6.33,2.52
			c1.18,1.01,1.78,2.42,1.78,4.22c0,1.97-0.82,3.65-2.46,5.07c-1.64,1.41-4.07,2.12-7.29,2.12c-2.92,0-5.23-0.59-6.94-1.78
			C159.76,512.77,158.65,511.16,158.13,509.13z"/>
		<path class="st0" d="M207.16,485.65h11.83c2.34,0,4.09,0.1,5.24,0.29c1.15,0.2,2.18,0.6,3.09,1.22c0.91,0.62,1.67,1.44,2.27,2.47
			c0.61,1.03,0.91,2.18,0.91,3.46c0,1.39-0.37,2.66-1.12,3.82s-1.76,2.03-3.04,2.6c1.8,0.52,3.19,1.42,4.16,2.68
			c0.97,1.27,1.45,2.75,1.45,4.46c0,1.35-0.31,2.66-0.94,3.93c-0.63,1.27-1.48,2.29-2.56,3.05c-1.08,0.76-2.42,1.23-4.01,1.4
			c-1,0.11-3.4,0.18-7.21,0.2h-10.07V485.65z M213.13,490.58v6.84h3.92c2.33,0,3.78-0.03,4.34-0.1c1.02-0.12,1.83-0.47,2.41-1.06
			s0.88-1.36,0.88-2.31c0-0.92-0.25-1.66-0.76-2.23c-0.5-0.57-1.26-0.92-2.25-1.04c-0.59-0.07-2.29-0.1-5.11-0.1H213.13z
			 M213.13,502.35v7.91h5.53c2.15,0,3.52-0.06,4.1-0.18c0.89-0.16,1.61-0.55,2.17-1.18s0.84-1.46,0.84-2.51
			c0-0.89-0.22-1.64-0.65-2.26s-1.05-1.07-1.87-1.35c-0.81-0.28-2.58-0.42-5.3-0.42H213.13z"/>
		<path class="st0" d="M257.31,515.25v-3.21c-0.78,1.14-1.81,2.05-3.08,2.71s-2.61,0.99-4.03,0.99c-1.44,0-2.73-0.32-3.88-0.95
			c-1.14-0.63-1.97-1.52-2.48-2.66c-0.51-1.14-0.77-2.73-0.77-4.75v-13.57h5.67v9.85c0,3.02,0.1,4.86,0.31,5.54
			c0.21,0.68,0.59,1.22,1.14,1.62c0.55,0.4,1.25,0.6,2.1,0.6c0.97,0,1.84-0.27,2.6-0.8c0.77-0.53,1.29-1.19,1.57-1.98
			c0.28-0.79,0.42-2.71,0.42-5.78v-9.04h5.67v21.44H257.31z"/>
		<path class="st0" d="M272.7,509.13l5.69-0.87c0.24,1.1,0.73,1.94,1.47,2.51s1.78,0.86,3.11,0.86c1.47,0,2.57-0.27,3.31-0.81
			c0.5-0.38,0.75-0.88,0.75-1.51c0-0.43-0.13-0.79-0.4-1.07c-0.28-0.27-0.92-0.52-1.9-0.75c-4.58-1.01-7.48-1.93-8.7-2.77
			c-1.7-1.16-2.54-2.77-2.54-4.83c0-1.86,0.73-3.42,2.2-4.68c1.47-1.26,3.74-1.9,6.82-1.9c2.93,0,5.11,0.48,6.54,1.43
			c1.43,0.96,2.41,2.37,2.95,4.24l-5.35,0.99c-0.23-0.83-0.66-1.47-1.3-1.92s-1.55-0.67-2.74-0.67c-1.49,0-2.56,0.21-3.21,0.63
			c-0.43,0.3-0.65,0.68-0.65,1.15c0,0.4,0.19,0.75,0.57,1.03c0.51,0.38,2.28,0.91,5.3,1.59c3.02,0.69,5.13,1.53,6.33,2.52
			c1.18,1.01,1.78,2.42,1.78,4.22c0,1.97-0.82,3.65-2.46,5.07c-1.64,1.41-4.07,2.12-7.29,2.12c-2.92,0-5.23-0.59-6.94-1.78
			C274.34,512.77,273.23,511.16,272.7,509.13z"/>
		<path class="st0" d="M303.94,490.9v-5.25h5.67v5.25H303.94z M303.94,515.25v-21.44h5.67v21.44H303.94z"/>
		<path class="st0" d="M341.18,515.25h-5.67v-10.94c0-2.32-0.12-3.81-0.36-4.49s-0.63-1.21-1.18-1.58c-0.54-0.38-1.2-0.57-1.97-0.57
			c-0.98,0-1.87,0.27-2.65,0.81c-0.78,0.54-1.32,1.25-1.61,2.14c-0.29,0.89-0.43,2.53-0.43,4.93v9.71h-5.67v-21.44h5.27v3.15
			c1.87-2.42,4.23-3.63,7.07-3.63c1.25,0,2.39,0.23,3.43,0.68c1.04,0.45,1.82,1.03,2.35,1.73c0.53,0.7,0.9,1.49,1.11,2.38
			c0.21,0.89,0.31,2.16,0.31,3.82V515.25z"/>
		<path class="st0" d="M365.59,508.42l5.65,0.95c-0.73,2.07-1.87,3.65-3.44,4.73c-1.57,1.08-3.53,1.63-5.89,1.63
			c-3.73,0-6.49-1.22-8.28-3.65c-1.41-1.95-2.12-4.41-2.12-7.39c0-3.55,0.93-6.34,2.79-8.35c1.86-2.01,4.21-3.02,7.05-3.02
			c3.19,0,5.71,1.05,7.55,3.16c1.84,2.11,2.73,5.33,2.65,9.68h-14.21c0.04,1.68,0.5,2.99,1.37,3.93s1.96,1.4,3.27,1.4
			c0.89,0,1.64-0.24,2.24-0.73C364.82,510.28,365.28,509.5,365.59,508.42z M365.91,502.69c-0.04-1.64-0.46-2.89-1.27-3.75
			s-1.79-1.28-2.95-1.28c-1.24,0-2.26,0.45-3.07,1.35c-0.81,0.9-1.21,2.13-1.19,3.67H365.91z"/>
		<path class="st0" d="M380.41,509.13l5.69-0.87c0.24,1.1,0.73,1.94,1.47,2.51s1.78,0.86,3.11,0.86c1.47,0,2.57-0.27,3.31-0.81
			c0.5-0.38,0.75-0.88,0.75-1.51c0-0.43-0.13-0.79-0.4-1.07c-0.28-0.27-0.92-0.52-1.9-0.75c-4.58-1.01-7.48-1.93-8.7-2.77
			c-1.7-1.16-2.54-2.77-2.54-4.83c0-1.86,0.73-3.42,2.2-4.68c1.47-1.26,3.74-1.9,6.82-1.9c2.93,0,5.11,0.48,6.54,1.43
			s2.41,2.37,2.95,4.24l-5.35,0.99c-0.23-0.83-0.66-1.47-1.3-1.92c-0.64-0.44-1.55-0.67-2.74-0.67c-1.49,0-2.56,0.21-3.21,0.63
			c-0.43,0.3-0.65,0.68-0.65,1.15c0,0.4,0.19,0.75,0.56,1.03c0.51,0.38,2.28,0.91,5.3,1.59s5.13,1.53,6.33,2.52
			c1.18,1.01,1.78,2.42,1.78,4.22c0,1.97-0.82,3.65-2.46,5.07c-1.64,1.41-4.07,2.12-7.29,2.12c-2.92,0-5.23-0.59-6.94-1.78
			C382.05,512.77,380.94,511.16,380.41,509.13z"/>
		<path class="st0" d="M409.65,509.13l5.69-0.87c0.24,1.1,0.73,1.94,1.47,2.51s1.78,0.86,3.11,0.86c1.47,0,2.57-0.27,3.31-0.81
			c0.5-0.38,0.75-0.88,0.75-1.51c0-0.43-0.13-0.79-0.4-1.07c-0.28-0.27-0.92-0.52-1.9-0.75c-4.58-1.01-7.48-1.93-8.7-2.77
			c-1.7-1.16-2.54-2.77-2.54-4.83c0-1.86,0.73-3.42,2.2-4.68c1.47-1.26,3.74-1.9,6.82-1.9c2.93,0,5.11,0.48,6.54,1.43
			s2.41,2.37,2.95,4.24l-5.35,0.99c-0.23-0.83-0.66-1.47-1.3-1.92c-0.64-0.44-1.55-0.67-2.74-0.67c-1.49,0-2.56,0.21-3.21,0.63
			c-0.43,0.3-0.65,0.68-0.65,1.15c0,0.4,0.19,0.75,0.56,1.03c0.51,0.38,2.28,0.91,5.3,1.59s5.13,1.53,6.33,2.52
			c1.18,1.01,1.78,2.42,1.78,4.22c0,1.97-0.82,3.65-2.46,5.07c-1.64,1.41-4.07,2.12-7.29,2.12c-2.92,0-5.23-0.59-6.94-1.78
			C411.29,512.77,410.18,511.16,409.65,509.13z"/>
		<path class="st0" d="M457.15,505.62l5.81-0.56c0.35,1.95,1.06,3.38,2.13,4.3c1.07,0.92,2.51,1.37,4.33,1.37
			c1.92,0,3.38-0.41,4.35-1.22s1.46-1.77,1.46-2.86c0-0.7-0.21-1.3-0.62-1.79c-0.41-0.49-1.13-0.92-2.15-1.28
			c-0.7-0.24-2.29-0.67-4.79-1.29c-3.2-0.79-5.45-1.77-6.74-2.93c-1.82-1.63-2.73-3.61-2.73-5.96c0-1.51,0.43-2.92,1.28-4.23
			c0.86-1.31,2.09-2.31,3.7-3s3.55-1.03,5.82-1.03c3.71,0,6.51,0.81,8.39,2.44c1.88,1.63,2.86,3.8,2.96,6.52l-5.98,0.26
			c-0.26-1.52-0.8-2.61-1.65-3.28c-0.84-0.67-2.1-1-3.79-1c-1.74,0-3.1,0.36-4.08,1.07c-0.63,0.46-0.95,1.07-0.95,1.84
			c0,0.7,0.3,1.3,0.89,1.8c0.75,0.63,2.58,1.29,5.49,1.98c2.91,0.69,5.06,1.4,6.45,2.13c1.39,0.73,2.48,1.74,3.27,3.01
			c0.79,1.27,1.18,2.84,1.18,4.71c0,1.7-0.47,3.28-1.41,4.76c-0.94,1.48-2.27,2.58-4,3.3c-1.72,0.72-3.87,1.08-6.44,1.08
			c-3.74,0-6.62-0.87-8.62-2.59C458.74,511.45,457.54,508.93,457.15,505.62z"/>
		<path class="st0" d="M491.13,504.22c0-1.88,0.46-3.71,1.39-5.47c0.93-1.76,2.24-3.11,3.95-4.04c1.7-0.93,3.6-1.39,5.7-1.39
			c3.24,0,5.9,1.05,7.97,3.16c2.07,2.11,3.11,4.77,3.11,7.99c0,3.24-1.05,5.93-3.14,8.07c-2.09,2.13-4.73,3.2-7.9,3.2
			c-1.96,0-3.84-0.44-5.62-1.33c-1.78-0.89-3.14-2.19-4.07-3.91C491.6,508.78,491.13,506.69,491.13,504.22z M496.95,504.53
			c0,2.13,0.5,3.75,1.51,4.89s2.25,1.7,3.74,1.7c1.48,0,2.72-0.57,3.72-1.7s1.5-2.77,1.5-4.93c0-2.1-0.5-3.71-1.5-4.85
			s-2.24-1.7-3.72-1.7c-1.48,0-2.73,0.57-3.74,1.7S496.95,502.4,496.95,504.53z"/>
		<path class="st0" d="M523.95,515.25v-29.6h5.67v29.6H523.95z"/>
		<path class="st0" d="M555.79,515.25v-3.21c-0.78,1.14-1.81,2.05-3.08,2.71c-1.27,0.66-2.62,0.99-4.03,0.99
			c-1.44,0-2.73-0.32-3.88-0.95c-1.14-0.63-1.97-1.52-2.48-2.66c-0.51-1.14-0.77-2.73-0.77-4.75v-13.57h5.67v9.85
			c0,3.02,0.1,4.86,0.31,5.54c0.21,0.68,0.59,1.22,1.14,1.62c0.55,0.4,1.25,0.6,2.1,0.6c0.97,0,1.84-0.27,2.6-0.8
			c0.77-0.53,1.29-1.19,1.58-1.98c0.28-0.79,0.42-2.71,0.42-5.78v-9.04h5.67v21.44H555.79z"/>
		<path class="st0" d="M583.01,493.81v4.52h-3.88v8.64c0,1.75,0.04,2.77,0.11,3.06c0.07,0.29,0.24,0.53,0.5,0.72
			c0.26,0.19,0.58,0.28,0.96,0.28c0.52,0,1.29-0.18,2.28-0.54l0.48,4.4c-1.32,0.57-2.81,0.85-4.48,0.85c-1.02,0-1.95-0.17-2.77-0.51
			c-0.82-0.34-1.42-0.79-1.81-1.33c-0.38-0.54-0.65-1.28-0.8-2.21c-0.12-0.66-0.18-1.99-0.18-4v-9.35h-2.6v-4.52h2.6v-4.26
			l5.69-3.31v7.57H583.01z"/>
		<path class="st0" d="M593.19,490.9v-5.25h5.67v5.25H593.19z M593.19,515.25v-21.44h5.67v21.44H593.19z"/>
		<path class="st0" d="M609.61,504.22c0-1.88,0.46-3.71,1.39-5.47c0.93-1.76,2.24-3.11,3.95-4.04c1.7-0.93,3.6-1.39,5.7-1.39
			c3.24,0,5.9,1.05,7.97,3.16c2.07,2.11,3.11,4.77,3.11,7.99c0,3.24-1.05,5.93-3.14,8.07c-2.09,2.13-4.73,3.2-7.9,3.2
			c-1.96,0-3.84-0.44-5.62-1.33c-1.78-0.89-3.14-2.19-4.07-3.91C610.07,508.78,609.61,506.69,609.61,504.22z M615.42,504.53
			c0,2.13,0.5,3.75,1.51,4.89s2.25,1.7,3.74,1.7c1.48,0,2.72-0.57,3.72-1.7s1.5-2.77,1.5-4.93c0-2.1-0.5-3.71-1.5-4.85
			s-2.24-1.7-3.72-1.7c-1.48,0-2.73,0.57-3.74,1.7S615.42,502.4,615.42,504.53z"/>
		<path class="st0" d="M661.93,515.25h-5.67v-10.94c0-2.32-0.12-3.81-0.36-4.49s-0.64-1.21-1.18-1.58c-0.54-0.38-1.2-0.57-1.97-0.57
			c-0.98,0-1.87,0.27-2.65,0.81s-1.32,1.25-1.6,2.14c-0.29,0.89-0.43,2.53-0.43,4.93v9.71h-5.67v-21.44h5.27v3.15
			c1.87-2.42,4.23-3.63,7.07-3.63c1.25,0,2.4,0.23,3.43,0.68c1.04,0.45,1.82,1.03,2.35,1.73c0.53,0.7,0.9,1.49,1.11,2.38
			c0.21,0.89,0.31,2.16,0.31,3.82V515.25z"/>
		<path class="st0" d="M671.93,509.13l5.69-0.87c0.24,1.1,0.73,1.94,1.47,2.51s1.78,0.86,3.11,0.86c1.47,0,2.57-0.27,3.31-0.81
			c0.5-0.38,0.75-0.88,0.75-1.51c0-0.43-0.13-0.79-0.4-1.07c-0.28-0.27-0.92-0.52-1.9-0.75c-4.58-1.01-7.48-1.93-8.7-2.77
			c-1.7-1.16-2.54-2.77-2.54-4.83c0-1.86,0.73-3.42,2.2-4.68c1.47-1.26,3.74-1.9,6.82-1.9c2.93,0,5.11,0.48,6.54,1.43
			s2.41,2.37,2.95,4.24l-5.35,0.99c-0.23-0.83-0.66-1.47-1.3-1.92c-0.64-0.44-1.55-0.67-2.74-0.67c-1.49,0-2.56,0.21-3.21,0.63
			c-0.43,0.3-0.65,0.68-0.65,1.15c0,0.4,0.19,0.75,0.56,1.03c0.51,0.38,2.28,0.91,5.3,1.59s5.13,1.53,6.33,2.52
			c1.18,1.01,1.78,2.42,1.78,4.22c0,1.97-0.82,3.65-2.46,5.07c-1.64,1.41-4.07,2.12-7.29,2.12c-2.92,0-5.23-0.59-6.94-1.78
			C673.56,512.77,672.45,511.16,671.93,509.13z"/>
	</g>
	<path class="st1" d="M401.44,219.85c-9.75-18.78-23.83-34.56-42.29-47.33c-1.15-0.81-2.31-1.58-3.49-2.31
		c-8.73-5.63-18.35-10.07-28.83-13.33c-2.65-0.83-5.3-1.56-7.94-2.2c-9.3-2.23-18.63-3.36-28.02-3.36
		c-11.85,0-23.19,1.26-34.05,3.79c-0.68,0.15-1.35,0.3-2.03,0.47c-11.46,2.85-22.37,7.21-32.71,13.07v48.87
		c10.35-7.93,20.86-13.78,31.55-17.58c10.69-3.79,21.56-5.69,32.6-5.69c24.47,0,44.53,8.11,60.13,24.32
		c15.59,16.21,23.4,37.15,23.4,62.84c0,26.91-7.59,48.58-22.76,65.05c-15.17,16.47-34.91,24.7-59.23,24.7
		c-23.96,0-43.46-8.23-58.44-24.7c-15.01-16.47-22.5-37.97-22.5-64.53V0h-45.79v262.01c0,22.76,1.07,39.83,3.23,51.21
		c2.16,11.38,5.73,21.82,10.74,31.31c10.35,20.86,25.24,37.43,44.68,49.64c0.62,0.41,1.24,0.81,1.88,1.18
		c11.06,6.7,22.74,11.59,35.04,14.63c10.29,2.57,21.03,3.85,32.19,3.85c10.61,0,20.71-1.03,30.27-3.12
		c13.93-3.02,26.76-8.26,38.44-15.7c8.02-5.11,15.49-11.25,22.46-18.42c7.93-8.17,14.55-17.09,19.83-26.72
		c3.21-5.77,5.92-11.79,8.15-18.1c0.02-0.04,0.04-0.08,0.04-0.11c5.37-15.08,8.06-31.64,8.06-49.71
		C416.05,259.35,411.19,238.65,401.44,219.85z"/>
	<path class="st0" d="M505.28,376.52h109.66c11.03,0,19.7-2.16,25.99-6.47c6.29-4.31,9.44-10.26,9.44-17.85
		c0-6.38-2.37-11.81-7.11-16.3c-4.74-4.48-13.67-9.48-26.77-15l-43.45-17.59c-25.52-10.34-43.11-20.9-52.76-31.68
		c-9.66-10.77-14.48-24.53-14.48-41.25c0-20.69,7.32-36.55,21.98-47.59c14.66-11.03,35.69-16.55,63.11-16.55h93.88v42.42H578.73
		c-8.62,0-15.35,1.9-20.17,5.69c-4.83,3.8-7.24,9.14-7.24,16.04c0,5.17,2.16,9.83,6.47,13.97c4.31,4.14,11.46,8.28,21.47,12.42
		l45.78,18.62c28.45,11.73,47.63,23.02,57.55,33.88c9.91,10.86,14.87,24.66,14.87,41.38c0,23.45-8.71,40.87-26.12,52.25
		c-17.42,11.38-44.23,17.07-80.44,17.07h-85.61V376.52z"/>
	<path class="st0" d="M0,99h45.52v67.24h76.82v42.93H45.52v108.63c0,20.35,4.96,35.22,14.87,44.62c9.91,9.4,25.73,14.1,47.46,14.1
		h14.48v43.45h-15c-35.87,0-62.72-7.85-80.57-23.54C8.92,380.74,0,357.12,0,325.57V99z"/>
</g>
</svg>
